<?xml version="1.0" standalone="no"?><!DOCTYPE svg PUBLIC "-//W3C//DTD SVG 1.1//EN" "http://www.w3.org/Graphics/SVG/1.1/DTD/svg11.dtd"><svg t="1527666339399" class="icon" style="" viewBox="0 0 1024 1024" version="1.1" xmlns="http://www.w3.org/2000/svg" p-id="938" xmlns:xlink="http://www.w3.org/1999/xlink" width="200" height="200"><defs><style type="text/css"></style></defs><path d="M520.533333 64L170.666667 241.066667v360.533333l349.866666 177.066667 349.866667-177.066667V241.066667L520.533333 64z m283.733334 497.066667l-285.866667 145.066666-91.733333-46.933333 157.866666-89.6c8.533333 4.266667 17.066667 6.4 25.6 6.4 32 0 57.6-25.6 57.6-57.6 0-32-25.6-57.6-57.6-57.6-29.866667 0-53.333333 21.333333-55.466666 49.066667l-198.4 110.933333-123.733334-61.866667V279.466667l285.866667-145.066667 102.4 51.2-164.266667 91.733333c-8.533333-4.266667-17.066667-6.4-25.6-6.4-32 0-57.6 25.6-57.6 57.6 0 32 25.6 57.6 57.6 57.6 29.866667 0 53.333333-21.333333 55.466667-49.066666l202.666667-113.066667 113.066666 57.6v279.466667h2.133334z" fill="#00C1DE" p-id="939"></path><path d="M522.666667 883.2L170.666667 710.4v70.4l352 174.933333 347.733333-174.933333v-70.4z" fill="#00C1DE" p-id="940"></path></svg>